PathFileType	4	(X/Y/Z)	TVC_58_BWA_05_walk_RCNL2025.trc
DataRate	CameraRate	NumFrames	NumMarkers	Units	OrigDataRate	OrigDataStartFrame	OrigNumFrames
100	100	11	27	mm	100	275	366
Frame#	Time	R_Shoulder			L_Shoulder			C7			J_Notch			R_Elbow			L_Elbow			R_Wrist			L_Wrist			R_Asis			L_Asis			R_Psis			L_Psis			Sacral			Thoracic			Sternum			R_Thigh_Lateral			R_Knee_Lateral			R_Shank_Lateral			R_Ankle_Lateral			R_Heel			R_Toe			L_Thigh_Lateral			L_Knee_Lateral			L_Shank_Lateral			L_Ankle_Lateral			L_Heel			L_Toe		
		X1	Y1	Z1	X2	Y2	Z2	X3	Y3	Z3	X4	Y4	Z4	X5	Y5	Z5	X6	Y6	Z6	X7	Y7	Z7	X8	Y8	Z8	X9	Y9	Z9	X10	Y10	Z10	X11	Y11	Z11	X12	Y12	Z12	X13	Y13	Z13	X14	Y14	Z14	X15	Y15	Z15	X16	Y16	Z16	X17	Y17	Z17	X18	Y18	Z18	X19	Y19	Z19	X20	Y20	Z20	X21	Y21	Z21	X22	Y22	Z22	X23	Y23	Z23	X24	Y24	Z24	X25	Y25	Z25	X26	Y26	Z26	X27	Y27	Z27
275	2.74000000	227.674011	1314.337646	434.514160	212.357285	1339.287598	78.802437	158.419662	1396.880737	255.131775	304.802399	1301.261841	253.271576	253.015289	992.296448	487.438995	140.637634	1022.955322	13.274800	384.382919	778.258240	497.220871	194.577660	789.406494	-61.504730	353.653381	892.038452	375.139801	342.597778	906.086853	66.160835	119.286568	926.093872	292.593750	113.043625	916.555969	180.512634	116.165096	921.324921	236.553192	115.359734	1088.546753	243.352966	415.372925	1080.177368	227.046097	300.205994	673.435181	457.247498	229.887054	446.027222	381.803192	82.867241	292.945190	425.048492	-52.510868	133.545776	330.166351	-94.157486	160.529861	272.762299	35.533417	43.320728	287.757965	309.888092	653.129333	0.873504	415.840912	470.911896	111.654510	405.652039	274.731750	70.094200	376.418182	60.383469	173.353043	334.129974	55.043129	226.599213	515.964050	44.773590	196.144913
276	2.75000000	235.257446	1316.333496	432.905701	220.002106	1340.504150	77.182617	166.007965	1398.062134	253.308960	312.548096	1302.888794	251.728699	258.076324	994.080383	485.891144	148.729614	1023.930786	12.480540	386.039490	777.904785	496.838943	204.013176	790.394043	-62.082144	361.826691	893.441284	373.794769	351.082092	907.961792	65.345963	127.862289	926.337952	291.623413	121.564217	918.106567	179.221878	124.713253	922.222260	235.422646	123.631264	1089.616699	242.189926	423.421051	1082.017212	226.116806	311.295166	674.487976	456.675812	246.683868	445.509613	382.798676	95.064354	296.759613	426.437317	-43.125736	139.900986	331.921844	-82.889442	169.135101	274.373230	38.357956	43.480091	288.039429	317.078094	654.929504	-0.498588	418.397614	470.457214	110.629303	405.231842	274.762604	69.255295	376.416962	60.344105	173.249542	334.097290	55.099754	226.503357	515.844971	44.843330	196.320068
277	2.76000000	242.742294	1318.242065	431.312653	227.739624	1341.686523	75.563469	173.603561	1399.239624	251.476212	320.283936	1304.459106	250.219727	262.983643	995.806519	484.425262	156.834137	1024.876709	11.621344	387.608780	777.622101	496.544220	213.628281	791.397980	-62.724955	369.727997	894.715393	372.597229	359.458344	909.632385	64.632156	136.215485	926.505798	290.562622	129.914825	919.633545	177.884750	133.065155	923.069672	234.223686	131.806366	1090.716919	240.957153	431.416565	1083.617310	225.267761	322.451294	675.455322	456.155701	264.030762	444.958008	383.707336	108.680588	300.091339	427.908905	-32.660172	146.350525	333.836212	-70.647392	177.798553	276.317719	41.772030	44.041737	288.432068	323.539429	656.484985	-1.743998	420.658630	469.969086	109.660416	405.197235	275.086395	68.555069	376.405365	60.292629	173.208664	334.062653	55.141254	226.477417	515.739197	44.896553	196.482803
278	2.77000000	250.130707	1320.032593	429.740540	235.575134	1342.801147	73.948227	181.208939	1400.397339	249.637543	328.009796	1305.945679	248.749405	267.742004	997.443115	483.046082	164.965561	1025.760864	10.677440	389.119751	777.397095	496.334625	223.414055	792.389923	-63.442024	377.366211	895.823242	371.559692	367.720490	911.049927	64.033279	144.334412	926.603577	289.423035	138.079559	921.120178	176.519333	141.206985	923.861877	232.971184	139.875626	1091.832275	239.663330	439.362091	1084.940918	224.504120	333.666351	676.338867	455.646698	281.816925	444.434265	384.455353	123.859818	302.700165	429.387848	-21.134457	152.847946	335.856293	-57.527016	186.401474	278.536072	45.993114	45.105442	289.021667	329.224060	657.765869	-2.859527	422.740906	469.470306	108.761009	405.510132	275.454895	67.935112	376.406647	60.234955	173.218185	334.044434	55.185711	226.510117	515.666382	44.913998	196.627472
279	2.78000000	257.427063	1321.682129	428.194336	243.510345	1343.821045	72.340729	188.826096	1401.523193	247.797287	335.725098	1307.327148	247.321854	272.356781	998.966492	481.756104	173.139069	1026.558105	9.629788	390.598297	777.218842	496.206635	233.360725	793.346588	-64.239628	384.757355	896.743225	370.691162	375.863495	912.177368	63.556927	152.213287	926.645020	288.218719	146.046051	922.554382	175.146500	149.129669	924.599701	231.682610	147.831619	1092.950317	238.318634	447.256622	1085.965088	223.828888	344.917389	677.163208	455.118683	299.937531	444.013092	384.990082	140.635452	304.453827	430.784454	-8.586781	159.341476	337.918427	-43.628727	194.812576	280.933563	51.285366	46.740238	289.907196	334.147308	658.762268	-3.850691	424.743134	468.978516	107.937332	406.123901	275.678345	67.348907	376.435089	60.176636	173.264206	334.054382	55.246941	226.588257	515.634827	44.889297	196.748734
280	2.79000000	264.637451	1323.176758	426.678131	251.543304	1344.727051	70.745399	196.456345	1402.608643	245.960007	343.428680	1308.587769	245.940445	276.834045	1000.362183	480.555420	181.370148	1027.252686	8.461056	392.066742	777.078827	496.155350	243.457603	794.250610	-65.120977	391.923462	897.471191	369.996826	383.882599	912.992249	63.202343	159.852341	926.650146	286.965485	153.805893	923.927856	173.789383	156.829117	925.289001	230.377434	155.669174	1094.061157	236.934052	455.095428	1086.682495	223.242752	356.164124	677.969482	454.556305	318.299835	443.775208	385.282928	158.912872	305.371796	432.002441	4.930988	165.768555	339.953949	-29.048979	202.888901	283.389526	57.946598	48.973728	291.187744	338.393402	659.485901	-4.730337	426.739380	468.505859	107.189125	407.034393	275.649139	66.788551	376.496338	60.122417	173.332596	334.097870	55.333809	226.698013	515.643188	44.825684	196.841492
281	2.80000000	271.769104	1324.511597	425.195251	259.668365	1345.507935	69.167068	204.100189	1403.648682	244.130371	351.118835	1309.718140	244.607819	281.180145	1001.624573	479.441895	189.673996	1027.837280	7.156620	393.543640	776.971832	496.174484	253.693245	795.091003	-66.085968	398.890594	898.020447	369.476776	391.772430	913.489014	62.958809	167.257614	926.643127	285.680237	161.354904	925.235352	172.472229	164.306259	925.939240	229.076233	163.385590	1095.158081	235.520935	462.870239	1087.101929	222.744019	367.352051	678.805969	453.959229	336.826721	443.799011	385.326538	178.472672	305.630493	432.953430	19.358553	172.052063	341.895691	-13.875082	210.478790	285.772369	66.285004	51.788708	292.945557	342.110565	659.969116	-5.516719	428.777069	468.059357	106.510948	408.274597	275.337311	66.284081	376.588898	60.075825	173.410629	334.174896	55.450253	226.825821	515.683533	44.732471	196.901199
282	2.81000000	278.829773	1325.689819	423.747986	267.876556	1346.160767	67.610855	211.757309	1404.641602	242.313049	358.793121	1310.714844	243.325745	285.401764	1002.757202	478.411194	198.064789	1028.313965	5.705517	395.043854	776.895660	496.256546	264.055489	795.863129	-67.131098	405.686768	898.419983	369.124664	399.526154	913.680420	62.805065	174.440659	926.650146	284.380402	168.693405	926.474304	171.219025	171.567032	926.562225	227.799713	170.980576	1096.236694	234.090332	470.569946	1087.247681	222.328537	378.419556	679.718018	453.339264	355.457336	444.152740	385.128662	198.992752	305.526276	433.574432	34.633251	178.099014	343.684174	1.818365	217.426422	287.956085	76.586128	55.125206	295.228333	345.495300	660.260254	-6.231169	430.878784	467.641907	105.894333	409.870728	274.772003	65.880180	376.706299	60.039177	173.487885	334.281433	55.595985	226.959305	515.744507	44.621853	196.924377
283	2.82000000	285.827271	1326.722656	422.337646	276.155945	1346.690186	66.081848	219.426498	1405.588379	240.512558	366.448700	1311.579956	242.095139	289.505981	1003.771240	477.457062	206.554886	1028.692505	4.101242	396.578644	776.851166	496.393127	274.531502	796.568207	-68.249552	412.339874	898.711914	368.926666	407.134552	913.596558	62.709892	181.417969	926.697449	283.083435	175.826370	927.644043	170.051712	178.622169	927.170746	226.567574	178.456314	1097.294556	232.652634	478.181366	1087.157471	221.989685	389.307434	680.741394	452.715302	374.144562	444.888947	384.704865	220.087463	305.406250	433.839966	50.696045	183.800964	345.272980	17.972427	223.577896	289.836426	89.075127	58.884754	298.035706	348.769012	660.417297	-6.895449	433.046967	467.252777	105.330193	411.794861	274.024170	65.607101	376.839722	60.013725	173.556747	334.410919	55.767567	227.088013	515.814514	44.506321	196.909424
284	2.83000000	292.768921	1327.627563	420.964600	284.492218	1347.107544	64.584915	227.105728	1406.491943	238.733170	374.082306	1312.320557	240.916046	293.500122	1004.684570	476.571350	215.153992	1028.989380	2.342374	398.156113	776.841736	496.574936	285.107971	797.212677	-69.431461	418.876617	898.947021	368.860992	414.585785	913.283020	62.633926	188.210434	926.808594	281.806335	182.763504	928.745850	168.988663	185.486969	927.777222	225.397499	185.817230	1098.331543	231.217163	485.690125	1086.880493	221.718414	399.970551	681.900574	452.107452	392.849396	446.042084	384.073120	241.361267	305.589233	433.763733	67.495888	189.036011	346.632416	34.545952	228.787964	291.344208	103.883018	62.935574	301.312286	352.150726	660.499939	-7.528866	435.269653	466.888763	104.810883	413.944214	273.196320	65.464409	376.980042	59.999825	173.612366	334.555817	55.959656	227.203934	515.883728	44.396824	196.857193
285	2.84000000	299.661407	1328.426514	419.628235	292.869415	1347.429443	63.124363	234.792267	1407.357056	236.978775	381.690521	1312.947510	239.787567	297.392120	1005.519958	475.744537	223.868469	1029.226562	0.432972	399.781540	776.872681	496.792343	295.771088	797.806854	-70.664303	425.321808	899.180542	368.898529	421.865997	912.797791	62.532516	194.842468	927.003296	280.565430	189.519119	929.782288	168.043182	192.180794	928.392792	224.304306	193.069717	1099.348022	229.792007	493.081757	1086.473145	221.503235	410.386200	683.210083	451.531769	411.532379	447.628052	383.250305	262.470703	306.295624	433.390564	84.991417	193.672714	347.751099	51.516529	232.927109	292.453796	121.026871	67.120201	304.950287	355.829773	660.561707	-8.145456	437.527008	466.545197	104.331406	416.151520	272.406128	65.420227	377.119171	59.997089	173.652344	334.708282	56.166172	227.301575	515.945435	44.301723	196.771255
